<?xml version="1.0" standalone="no"?><!DOCTYPE svg PUBLIC "-//W3C//DTD SVG 1.1//EN" "http://www.w3.org/Graphics/SVG/1.1/DTD/svg11.dtd"><svg t="1535365976122" class="icon" style="" viewBox="0 0 1024 1024" version="1.1" xmlns="http://www.w3.org/2000/svg" p-id="1928" xmlns:xlink="http://www.w3.org/1999/xlink" width="35" height="35"><defs><style type="text/css"></style></defs><path d="M808.031227 247.518327 655.469576 247.518327c-10.93812-27.216875-34.220383-53.587476-63.61383-53.587476L428.396907 193.930851c-29.389354 0-53.295833 27.14729-63.609737 53.587476L222.61617 247.518327c-44.091194 0-81.086783 36.756135-81.086783 80.846306l0 425.75473c0 44.091194 36.995589 78.618569 81.086783 78.618569l585.415057 0c44.091194 0 77.782527-34.527374 77.782527-78.618569L885.813754 328.364633C885.813754 284.275485 852.118328 247.518327 808.031227 247.518327L808.031227 247.518327zM515.323699 699.79306c-88.177272 0-159.660326-71.478961-159.660326-159.656233s71.483054-159.660326 159.660326-159.660326 159.656233 71.483054 159.656233 159.660326C674.979932 628.310006 603.50097 699.79306 515.323699 699.79306L515.323699 699.79306zM757.928109 414.428777c-25.024953 0-45.310975-20.284999-45.310975-45.311998 0-25.024953 20.284999-45.310975 45.310975-45.310975 25.019837 0 45.311998 20.284999 45.311998 45.310975C803.241131 394.142755 782.948969 414.428777 757.928109 414.428777L757.928109 414.428777zM754.812141 408.194796" p-id="1929" fill="#1296db"></path></svg>